<?xml version="1.0" encoding="UTF-8" standalone="no"?><!DOCTYPE svg PUBLIC "-//W3C//DTD SVG 1.1//EN" "http://www.w3.org/Graphics/SVG/1.1/DTD/svg11.dtd"><svg width="100%" height="100%" viewBox="0 0 100 108" version="1.1" xmlns="http://www.w3.org/2000/svg" xmlns:xlink="http://www.w3.org/1999/xlink" xml:space="preserve" xmlns:serif="http://www.serif.com/" style="fill-rule:evenodd;clip-rule:evenodd;stroke-linejoin:round;stroke-miterlimit:2;"><path d="M69.333,86l14.667,22l-22,0l-12,-18l-12,18l-22,0l14.667,-22l-24.667,0l36.946,-55.42c-16.502,2.738 -28.946,14.877 -28.946,29.42c0,3.162 0.588,6.21 1.679,9.062c-9.655,-7.283 -15.679,-17.614 -15.679,-29.062c0,-22.077 22.404,-40 50,-40c27.596,0 50,17.923 50,40c0,11.448 -6.024,21.779 -15.679,29.062c1.091,-2.852 1.679,-5.9 1.679,-9.062c0,-14.543 -12.444,-26.682 -28.946,-29.42l36.946,55.42l-24.667,0Zm-29.333,-10l0,-18l-4,0l0,18l4,0Zm23.995,0l0.005,-18l-4,0l-0.005,18l4,0Z" style="fill:#a20;"/></svg>