<?xml version="1.0" encoding="UTF-8" standalone="no"?><!DOCTYPE svg PUBLIC "-//W3C//DTD SVG 1.1//EN" "http://www.w3.org/Graphics/SVG/1.1/DTD/svg11.dtd"><svg width="100%" height="100%" viewBox="0 0 66 68" version="1.1" xmlns="http://www.w3.org/2000/svg" xmlns:xlink="http://www.w3.org/1999/xlink" xml:space="preserve" xmlns:serif="http://www.serif.com/" style="fill-rule:evenodd;clip-rule:evenodd;stroke-linejoin:round;stroke-miterlimit:2;"><path d="M52.8,39.6l0.44,0c8.36,-2.816 11.88,-7.92 11.88,-16.852c0,-15.4 -10.736,-22.748 -32.56,-22.748c-21.824,0 -32.56,7.348 -32.56,22.748c0,8.932 3.52,14.036 11.88,16.852l0.44,0l0,-0.44c-0.704,-1.804 -1.012,-3.476 -1.012,-5.456c0,-7.128 3.828,-10.824 12.32,-12.144l-18.788,32.56l0,0.44l15.18,0l-7.348,12.76l0,0.44l13.596,0l6.292,-10.912l6.292,10.912l13.596,0l0,-0.44l-7.348,-12.76l15.18,0l0,-0.44l-18.744,-32.56c8.448,1.364 12.276,5.016 12.276,12.144c0,1.98 -0.308,3.652 -1.012,5.456l0,0.44Zm-28.82,8.36l0,-11.88l2.64,0l0,11.88l-2.64,0Zm14.52,0l0,-11.88l2.64,0l0,11.88l-2.64,0Z" style="fill:#d20;fill-rule:nonzero;"/></svg>