<?xml version="1.0" standalone="no"?>
<!DOCTYPE svg PUBLIC "-//W3C//DTD SVG 20010904//EN"
 "http://www.w3.org/TR/2001/REC-SVG-20010904/DTD/svg10.dtd">
<svg version="1.0" xmlns="http://www.w3.org/2000/svg"
 width="544.000000pt" height="544.000000pt" viewBox="0 0 544.000000 544.000000"
 preserveAspectRatio="xMidYMid meet">
<metadata>
Created by potrace 1.11, written by Peter Selinger 2001-2013
</metadata>
<g transform="translate(0.000000,544.000000) scale(0.100000,-0.100000)"
fill="#000000" stroke="none">
<path d="M2348 5435 c-2 -2 -46 -6 -98 -9 -52 -4 -117 -9 -145 -11 -27 -3 -73
-7 -101 -10 -51 -5 -107 -12 -154 -20 -14 -2 -45 -7 -70 -11 -75 -10 -271 -51
-350 -74 -41 -12 -82 -23 -90 -25 -57 -13 -76 -19 -85 -25 -5 -4 -46 -19 -90
-34 -77 -27 -305 -132 -315 -146 -3 -3 -12 -10 -20 -14 -30 -14 -148 -92 -160
-105 -3 -3 -27 -24 -55 -46 -170 -136 -338 -371 -419 -586 -28 -75 -75 -247
-82 -299 -2 -19 -10 -78 -18 -130 -8 -60 -12 -169 -11 -295 3 -182 7 -242 21
-315 3 -14 7 -37 9 -52 2 -15 9 -46 15 -70 7 -24 13 -50 15 -58 7 -36 70 -187
102 -244 47 -83 133 -195 191 -246 26 -24 61 -56 79 -71 17 -16 36 -29 42 -29
6 0 11 -4 11 -8 0 -23 282 -169 409 -212 65 -22 91 -21 87 2 -6 29 -19 74 -25
83 -3 6 -6 15 -7 20 -1 6 -6 28 -12 50 -27 98 -35 175 -34 305 0 136 9 214 34
305 6 22 12 45 14 50 6 26 40 96 76 156 90 153 260 282 473 359 56 21 177 57
215 64 14 2 49 9 79 15 29 6 63 11 74 11 18 0 19 -2 6 -17 -8 -10 -19 -27 -25
-38 -40 -74 -78 -141 -119 -210 -27 -44 -62 -105 -78 -135 -17 -30 -33 -57
-36 -60 -4 -3 -15 -24 -26 -47 -11 -24 -23 -43 -27 -43 -5 0 -8 -4 -8 -9 0 -5
-27 -55 -60 -111 -33 -56 -60 -103 -60 -105 0 -1 -36 -63 -79 -138 -43 -74
-90 -154 -103 -178 -14 -24 -60 -105 -103 -179 -43 -74 -83 -144 -89 -155 -6
-11 -13 -22 -16 -25 -3 -3 -10 -14 -16 -25 -12 -22 -160 -282 -185 -323 -9
-15 -27 -47 -41 -72 -14 -25 -46 -80 -72 -123 -25 -43 -46 -81 -46 -83 0 -2
-11 -21 -24 -42 -38 -60 -126 -212 -126 -217 0 -3 -18 -34 -40 -70 -22 -36
-40 -70 -40 -75 0 -6 -4 -10 -9 -10 -5 0 -13 -10 -17 -22 -3 -13 -14 -34 -24
-48 -19 -28 -32 -69 -22 -71 4 -1 277 -3 607 -4 330 -1 601 -3 602 -4 1 0 -12
-25 -29 -54 -17 -28 -42 -72 -56 -97 -14 -25 -34 -58 -44 -75 -10 -16 -21 -37
-25 -45 -3 -8 -21 -39 -40 -68 -18 -29 -33 -54 -33 -57 0 -2 -13 -26 -29 -53
-15 -26 -40 -68 -53 -93 -14 -24 -50 -87 -80 -139 -31 -52 -64 -111 -74 -130
-10 -19 -22 -36 -26 -38 -5 -2 -8 -8 -8 -13 0 -5 -18 -38 -40 -74 -22 -36 -41
-76 -43 -88 l-2 -22 545 -2 545 -3 60 107 c33 59 74 131 90 159 17 29 102 176
189 328 138 240 160 274 171 259 28 -42 275 -475 275 -484 0 -5 5 -9 10 -9 6
0 10 -4 10 -8 0 -10 82 -155 100 -177 7 -8 10 -15 7 -15 -3 0 10 -24 29 -52
19 -29 34 -58 34 -65 0 -7 5 -13 10 -13 6 0 10 -7 10 -15 0 -13 63 -15 503
-16 276 -1 507 0 512 1 6 1 24 2 42 2 18 -1 35 3 38 8 6 10 -23 68 -114 223
-28 49 -51 93 -51 98 0 5 -4 9 -10 9 -5 0 -10 4 -10 10 0 5 -14 33 -31 62 -33
55 -56 94 -94 163 -13 22 -47 81 -75 130 -29 50 -60 104 -69 120 -9 17 -19 32
-23 33 -5 2 -8 8 -8 14 0 6 -14 34 -32 62 -53 87 -68 115 -60 119 4 2 276 3
604 3 534 -1 597 1 601 15 2 8 -15 47 -38 85 -23 38 -57 96 -75 129 -41 74
-117 205 -130 225 -6 8 -13 22 -17 30 -4 8 -26 48 -50 88 -24 40 -43 77 -43
82 0 6 -4 10 -10 10 -5 0 -10 4 -10 10 0 8 -62 120 -100 180 -5 8 -21 38 -36
65 -15 28 -35 61 -45 74 -11 13 -19 27 -19 31 0 5 -20 41 -45 82 -24 40 -52
89 -61 108 -10 19 -25 46 -35 60 -9 14 -30 50 -47 80 -16 30 -120 212 -231
403 -110 191 -201 352 -201 357 0 6 -4 10 -10 10 -5 0 -10 4 -10 9 0 7 -51 99
-100 181 -50 83 -140 241 -140 246 0 2 -10 18 -22 34 -34 47 -30 47 132 15
105 -21 257 -73 355 -123 279 -140 425 -353 463 -677 9 -79 8 -218 -3 -297
-12 -91 -13 -96 -19 -116 -4 -11 -8 -29 -11 -39 -2 -10 -11 -40 -20 -67 -9
-27 -19 -60 -21 -73 -4 -22 -2 -24 23 -19 124 22 367 143 515 256 58 45 181
171 204 209 10 17 22 31 26 31 4 0 8 6 8 14 0 8 4 16 9 18 4 2 31 50 59 108
48 98 92 228 106 310 3 19 8 45 10 58 14 69 21 177 21 347 -1 189 -7 281 -30
395 -3 14 -7 34 -9 45 -41 204 -143 439 -256 590 -101 136 -274 296 -400 372
-210 127 -415 213 -660 276 -97 26 -245 57 -290 63 -14 1 -52 7 -85 13 -112
20 -229 33 -405 47 -65 5 -797 13 -802 9z m-140 -3356 l2 -475 -105 0 -105 -1
-1 26 c0 14 -1 226 -1 470 -1 299 3 445 10 450 5 3 52 6 104 5 l93 0 3 -475z
m1162 426 c1 -52 1 -844 0 -881 0 -19 -6 -20 -97 -20 -54 1 -103 4 -109 8 -7
5 -9 21 -5 45 4 21 4 54 0 73 -4 19 -3 40 2 46 5 6 7 13 4 16 -4 4 -6 57 -4
118 0 8 0 42 0 75 0 33 0 67 0 75 0 8 0 24 -1 35 -1 26 -2 345 -1 365 1 8 1
33 1 55 l-1 40 106 0 105 0 0 -50z"/>
</g>
</svg>
