<?xml version="1.0" standalone="no"?>
<!DOCTYPE svg PUBLIC "-//W3C//DTD SVG 20010904//EN"
 "http://www.w3.org/TR/2001/REC-SVG-20010904/DTD/svg10.dtd">
<svg version="1.0" xmlns="http://www.w3.org/2000/svg"
 width="700.000000pt" height="700.000000pt" viewBox="0 0 700.000000 700.000000"
 preserveAspectRatio="xMidYMid meet">
<metadata>
Created by potrace 1.11, written by Peter Selinger 2001-2013
</metadata>
<g transform="translate(0.000000,700.000000) scale(0.100000,-0.100000)"
fill="#000000" stroke="none">
<path d="M3279 6996 c-2 -2 -48 -7 -102 -10 -54 -4 -117 -9 -140 -12 -121 -16
-250 -36 -317 -50 -41 -9 -86 -18 -100 -20 -14 -3 -33 -7 -42 -10 -9 -3 -25
-6 -35 -8 -10 -2 -81 -22 -158 -45 -405 -117 -795 -310 -1110 -549 -473 -359
-805 -830 -944 -1342 -70 -255 -88 -591 -47 -860 11 -73 19 -108 46 -215 109
-432 366 -839 755 -1195 65 -59 178 -150 182 -146 2 1 -4 23 -12 47 -28 79
-56 198 -71 298 -4 25 -8 55 -10 66 -12 59 -3 344 12 415 3 14 10 50 15 80 35
215 165 495 332 715 78 102 156 185 286 305 162 148 453 320 698 414 189 72
513 157 513 135 0 -9 -25 -52 -43 -74 -4 -5 -532 -796 -1172 -1757 -658 -987
-1159 -1748 -1152 -1750 7 -2 364 -3 795 -3 430 0 782 -2 782 -5 0 -3 -212
-322 -470 -710 l-470 -705 706 -3 c423 -1 711 2 718 7 6 5 182 266 391 580
209 314 382 571 385 571 3 0 179 -261 390 -580 l385 -579 713 -1 c568 0 712 3
706 12 -4 7 -214 323 -467 701 -252 379 -460 694 -463 701 -3 9 179 12 790 11
781 0 794 0 784 19 -6 11 -540 814 -1188 1785 -647 971 -1180 1772 -1184 1778
-4 8 -2 11 6 8 7 -2 27 -6 43 -9 140 -21 375 -91 535 -159 506 -215 900 -571
1109 -1002 51 -103 114 -278 126 -344 3 -19 8 -38 11 -42 2 -4 11 -56 20 -116
34 -245 7 -543 -71 -762 -8 -24 -14 -46 -12 -47 2 -2 14 7 28 19 13 13 32 27
41 33 48 27 245 216 362 348 257 289 461 689 532 1041 31 155 39 241 39 430 0
211 -6 266 -45 456 -79 379 -298 785 -589 1092 -56 59 -157 158 -191 187 -14
12 -38 33 -53 46 -41 36 -182 144 -257 196 -337 232 -812 435 -1230 524 -41 8
-82 17 -90 19 -81 17 -235 40 -335 50 -38 4 -83 9 -100 11 -37 6 -561 14 -566
10z m-433 -3758 c3 -4 5 -357 4 -894 l0 -271 -127 1 -128 1 -1 582 -2 582 32
3 c41 4 217 1 222 -4z m1526 3 l37 -1 -1 -580 c0 -319 -3 -581 -7 -581 -3 -1
-61 -2 -128 -3 l-123 -2 -1 75 c-3 403 3 1086 10 1090 5 4 47 5 93 4 45 -1
100 -2 120 -2z"/>
</g>
</svg>
